# Blender 4.4.1
# www.blender.org
mtllib windmill_base.mtl
o Cylinder.001
v -6.000000 -13.000002 0.000000
v -6.000000 12.999998 0.000000
v -5.880000 11.230988 0.000000
v -5.884711 -13.000002 -1.170542
v -5.884711 12.999998 -1.170542
v -5.767017 11.230988 -1.147131
v -5.543277 -13.000002 -2.296100
v -5.543277 12.999998 -2.296100
v -5.432412 11.230988 -2.250179
v -4.988818 -13.000002 -3.333421
v -4.988818 12.999998 -3.333421
v -4.889041 11.230988 -3.266753
v -4.242640 -13.000002 -4.242640
v -4.242640 12.999998 -4.242640
v -4.157788 11.230988 -4.157788
v -3.333422 -13.000002 -4.988818
v -3.333422 12.999998 -4.988818
v -3.266753 11.230988 -4.889041
v -2.296101 -13.000002 -5.543277
v -2.296101 12.999998 -5.543277
v -2.250179 11.230988 -5.432412
v -1.170542 -13.000002 -5.884711
v -1.170542 12.999998 -5.884711
v -1.147131 11.230988 -5.767017
v -0.000000 -13.000002 -6.000000
v -0.000000 12.999998 -6.000000
v -0.000000 11.230988 -5.880000
v 1.170542 -13.000002 -5.884711
v 1.170542 12.999998 -5.884711
v 1.147131 11.230988 -5.767017
v 2.296100 -13.000002 -5.543277
v 2.250179 11.230988 -5.432412
v 2.296100 12.999998 -5.543277
v 3.333421 -13.000002 -4.988818
v 3.333421 12.999998 -4.988818
v 3.266753 11.230988 -4.889041
v 4.242640 -13.000002 -4.242640
v 4.242640 12.999998 -4.242640
v 4.157788 11.230988 -4.157788
v 4.988818 -13.000002 -3.333422
v 4.988818 12.999998 -3.333422
v 4.889041 11.230988 -3.266753
v 5.543277 -13.000002 -2.296101
v 5.543277 12.999998 -2.296101
v 5.432412 11.230988 -2.250179
v 5.884711 -13.000002 -1.170542
v 5.767017 11.230988 -1.147131
v 5.884711 12.999998 -1.170542
v 6.000000 -13.000002 -0.000000
v 6.000000 12.999998 -0.000000
v 5.880000 11.230988 -0.000000
v 5.884711 -13.000002 1.170542
v 5.884711 12.999998 1.170542
v 5.767017 11.230988 1.147131
v 5.543277 -13.000002 2.296100
v 5.543277 12.999998 2.296100
v 5.432412 11.230988 2.250179
v 4.988818 -13.000002 3.333421
v 4.988818 12.999998 3.333421
v 4.889041 11.230988 3.266753
v 4.242640 -13.000002 4.242640
v 4.242640 12.999998 4.242640
v 4.157788 11.230988 4.157788
v 3.333422 -13.000002 4.988818
v 3.333422 12.999998 4.988818
v 3.266753 11.230988 4.889041
v 2.296101 -13.000002 5.543277
v 2.296101 12.999998 5.543277
v 2.250179 11.230988 5.432412
v 1.170542 -13.000002 5.884711
v 1.170542 12.999998 5.884711
v 1.147131 11.230988 5.767017
v 0.000000 -13.000002 6.000000
v 0.000000 12.999998 6.000000
v 0.000000 11.230988 5.880000
v -1.170542 -13.000002 5.884711
v -1.170542 12.999998 5.884711
v -1.147131 11.230988 5.767017
v -2.296100 -13.000002 5.543277
v -2.296100 12.999998 5.543277
v -2.250179 11.230988 5.432412
v -3.333421 -13.000002 4.988818
v -3.333421 12.999998 4.988818
v -3.266753 11.230988 4.889041
v -4.242640 -13.000002 4.242640
v -4.242640 12.999998 4.242640
v -4.157788 11.230988 4.157788
v -4.988818 -13.000002 3.333422
v -4.988818 12.999998 3.333422
v -4.889041 11.230988 3.266753
v -5.543277 -13.000002 2.296101
v -5.543277 12.999998 2.296101
v -5.432412 11.230988 2.250179
v -5.884711 -13.000002 1.170542
v -5.767017 11.230988 1.147131
v -5.884711 12.999998 1.170542
v -5.880000 -13.000002 0.000000
v -5.432412 -13.000002 -2.250179
v -5.767017 -13.000002 -1.147131
v -4.157788 -13.000002 -4.157788
v -2.250179 -13.000002 -5.432412
v -3.266753 -13.000002 -4.889041
v 2.250179 -13.000002 -5.432412
v -0.000000 -13.000002 -5.880000
v 1.147131 -13.000002 -5.767017
v 5.432412 -13.000002 -2.250179
v 4.889041 -13.000002 -3.266753
v 4.157788 -13.000002 -4.157788
v 5.432412 -13.000002 2.250179
v 5.767017 -13.000002 1.147131
v 5.880000 -13.000002 -0.000000
v 2.250179 -13.000002 5.432412
v 3.266753 -13.000002 4.889041
v 4.157788 -13.000002 4.157788
v 0.000000 -13.000002 5.880000
v -2.250179 -13.000002 5.432412
v -1.147131 -13.000002 5.767017
v -4.157788 -13.000002 4.157788
v -5.432412 -13.000002 2.250179
v -4.889041 -13.000002 3.266753
v -4.889041 -13.000002 -3.266753
v 3.266753 -13.000002 -4.889041
v 4.889041 -13.000002 3.266753
v -3.266753 -13.000002 4.889041
v -5.767017 -13.000002 1.147131
v -1.147131 -13.000002 -5.767017
v 1.147131 -13.000002 5.767017
v 5.767017 -13.000002 -1.147131
v -1.800000 -13.000000 -5.693768
v -1.800000 -9.100000 -5.693768
v -1.170542 -13.000000 -5.884711
v -1.170542 -9.100000 -5.884711
v -0.000000 -13.000000 -6.000000
v -0.000000 -9.100000 -6.000000
v 1.170542 -13.000000 -5.884711
v 1.170542 -9.100000 -5.884711
v 1.800000 -13.000000 -5.693768
v 1.800000 -9.100000 -5.693768
v 1.800000 -13.000000 5.693768
v 1.800000 -9.100000 5.693768
v 1.170542 -13.000000 5.884711
v 1.170542 -9.100000 5.884711
v 0.000000 -13.000000 6.000000
v 0.000000 -9.100000 6.000000
v -1.170542 -13.000000 5.884711
v -1.170542 -9.100000 5.884711
v -1.800000 -13.000000 5.693768
v -1.800000 -9.100000 5.693768
v -1.800000 -13.000000 -5.568972
v -1.800000 -9.100000 -5.568972
v -1.147131 -13.000000 -5.767017
v -1.147131 -9.100000 -5.767017
v -0.000000 -13.000000 -5.880000
v -0.000000 -9.100000 -5.880000
v 1.147131 -13.000000 -5.767017
v 1.147131 -9.100000 -5.767017
v 1.800000 -13.000000 -5.568972
v 1.800000 -9.100000 -5.568972
v 1.147131 -13.000000 5.767017
v 1.147131 -9.100000 5.767017
v 1.800000 -13.000000 5.568972
v 1.800000 -9.100000 5.568972
v 0.000000 -13.000000 5.880000
v 0.000000 -9.100000 5.880000
v -1.147131 -13.000000 5.767017
v -1.147131 -9.100000 5.767017
v -1.800000 -13.000000 5.568972
v -1.800000 -9.100000 5.568972
vn -0.9952 -0.0000 -0.0980
vn -0.9569 -0.0000 -0.2903
vn -0.8819 -0.0000 -0.4714
vn -0.7730 -0.0000 -0.6344
vn -0.6344 -0.0000 -0.7730
vn -0.4714 -0.0000 -0.8819
vn -0.2903 -0.0000 -0.9569
vn -0.0980 -0.0000 -0.9952
vn -0.0766 -0.0000 -0.9971
vn 0.0980 -0.0000 -0.9952
vn 0.0766 -0.0000 -0.9971
vn 0.2903 -0.0000 -0.9569
vn 0.4714 -0.0000 -0.8819
vn 0.6344 -0.0000 -0.7730
vn 0.7730 -0.0000 -0.6344
vn 0.8819 -0.0000 -0.4714
vn 0.9569 -0.0000 -0.2903
vn 0.9952 -0.0000 -0.0980
vn 0.9952 -0.0000 0.0980
vn 0.9569 -0.0000 0.2903
vn 0.8819 -0.0000 0.4714
vn 0.7730 -0.0000 0.6344
vn 0.6344 -0.0000 0.7730
vn 0.4714 -0.0000 0.8819
vn 0.2903 -0.0000 0.9569
vn 0.0980 -0.0000 0.9952
vn 0.0766 -0.0000 0.9971
vn -0.0980 -0.0000 0.9952
vn -0.0766 -0.0000 0.9971
vn -0.2903 -0.0000 0.9569
vn -0.4714 -0.0000 0.8819
vn -0.6344 -0.0000 0.7730
vn -0.7730 -0.0000 0.6344
vn -0.8819 -0.0000 0.4714
vn -0.0000 1.0000 -0.0000
vn -0.9569 -0.0000 0.2903
vn -0.9952 -0.0000 0.0980
vn -0.0000 -1.0000 -0.0000
vn 0.0751 -0.0000 0.9972
vn -0.0751 -0.0000 0.9972
vn -0.0751 -0.0000 -0.9972
vn 0.0751 -0.0000 -0.9972
vn 1.0000 -0.0000 -0.0000
vn -1.0000 -0.0000 -0.0000
vt 1.000000 0.500000
vt 1.000000 1.000000
vt 0.968750 1.000000
vt 0.968750 0.500000
vt 0.937500 1.000000
vt 0.937500 0.500000
vt 0.906250 1.000000
vt 0.906250 0.500000
vt 0.875000 1.000000
vt 0.875000 0.500000
vt 0.843750 1.000000
vt 0.843750 0.500000
vt 0.812500 1.000000
vt 0.812500 0.500000
vt 0.781250 0.500000
vt 0.781250 1.000000
vt 0.781250 0.575000
vt 0.798726 0.575000
vt 0.798726 0.500000
vt 0.750000 1.000000
vt 0.750000 0.575000
vt 0.750000 0.500000
vt 0.718750 1.000000
vt 0.718750 0.575000
vt 0.718750 0.500000
vt 0.687500 1.000000
vt 0.687500 0.500000
vt 0.701274 0.500000
vt 0.701274 0.575000
vt 0.656250 1.000000
vt 0.656250 0.500000
vt 0.625000 1.000000
vt 0.625000 0.500000
vt 0.593750 1.000000
vt 0.593750 0.500000
vt 0.562500 1.000000
vt 0.562500 0.500000
vt 0.531250 1.000000
vt 0.531250 0.500000
vt 0.500000 1.000000
vt 0.500000 0.500000
vt 0.468750 1.000000
vt 0.468750 0.500000
vt 0.437500 1.000000
vt 0.437500 0.500000
vt 0.406250 1.000000
vt 0.406250 0.500000
vt 0.375000 1.000000
vt 0.375000 0.500000
vt 0.343750 1.000000
vt 0.343750 0.500000
vt 0.312500 1.000000
vt 0.312500 0.500000
vt 0.281250 0.500000
vt 0.281250 1.000000
vt 0.281250 0.575000
vt 0.298726 0.575000
vt 0.298726 0.500000
vt 0.250000 1.000000
vt 0.250000 0.575000
vt 0.250000 0.500000
vt 0.218750 1.000000
vt 0.218750 0.575000
vt 0.218750 0.500000
vt 0.187500 1.000000
vt 0.187500 0.500000
vt 0.201274 0.500000
vt 0.201274 0.575000
vt 0.156250 1.000000
vt 0.156250 0.500000
vt 0.125000 1.000000
vt 0.125000 0.500000
vt 0.093750 1.000000
vt 0.093750 0.500000
vt 0.062500 1.000000
vt 0.062500 0.500000
vt 0.383337 0.050447
vt 0.419706 0.080294
vt 0.449553 0.116663
vt 0.471731 0.158156
vt 0.485388 0.203178
vt 0.490000 0.250000
vt 0.485388 0.296822
vt 0.471731 0.341844
vt 0.449553 0.383337
vt 0.419706 0.419706
vt 0.383337 0.449553
vt 0.341844 0.471731
vt 0.296822 0.485388
vt 0.250000 0.490000
vt 0.203178 0.485388
vt 0.158156 0.471731
vt 0.116663 0.449553
vt 0.080294 0.419706
vt 0.050447 0.383337
vt 0.028269 0.341844
vt 0.014612 0.296822
vt 0.010000 0.250000
vt 0.014612 0.203178
vt 0.028269 0.158156
vt 0.050447 0.116663
vt 0.080294 0.080294
vt 0.116663 0.050447
vt 0.158156 0.028269
vt 0.203178 0.014612
vt 0.250000 0.010000
vt 0.296822 0.014612
vt 0.341844 0.028269
vt 0.031250 1.000000
vt 0.031250 0.500000
vt 0.000000 1.000000
vt 0.000000 0.500000
vt 0.532704 0.159993
vt 0.554438 0.119330
vt 0.550447 0.116663
vt 0.528269 0.158156
vt 0.514612 0.203178
vt 0.510000 0.250000
vt 0.514612 0.296822
vt 0.528269 0.341844
vt 0.550447 0.383337
vt 0.580294 0.419706
vt 0.616663 0.449553
vt 0.658156 0.471731
vt 0.703178 0.485388
vt 0.750000 0.490000
vt 0.796822 0.485388
vt 0.841844 0.471731
vt 0.883337 0.449553
vt 0.919706 0.419706
vt 0.949553 0.383337
vt 0.971731 0.341844
vt 0.985388 0.296822
vt 0.990000 0.250000
vt 0.985388 0.203178
vt 0.971731 0.158156
vt 0.949553 0.116663
vt 0.919706 0.080294
vt 0.883337 0.050447
vt 0.841844 0.028269
vt 0.796822 0.014612
vt 0.750000 0.010000
vt 0.703178 0.014612
vt 0.658156 0.028269
vt 0.616663 0.050447
vt 0.619330 0.054438
vt 0.659993 0.032704
vt 0.704115 0.019319
vt 0.750000 0.014800
vt 0.795885 0.019319
vt 0.840007 0.032704
vt 0.880670 0.054438
vt 0.916312 0.083688
vt 0.945562 0.119330
vt 0.967296 0.159993
vt 0.980681 0.204115
vt 0.985200 0.250000
vt 0.980681 0.295885
vt 0.967296 0.340007
vt 0.945562 0.380670
vt 0.916312 0.416312
vt 0.880670 0.445562
vt 0.840007 0.467297
vt 0.795885 0.480681
vt 0.750000 0.485200
vt 0.704115 0.480681
vt 0.659993 0.467296
vt 0.619330 0.445562
vt 0.583688 0.416312
vt 0.554438 0.380670
vt 0.532704 0.340007
vt 0.519319 0.295885
vt 0.514800 0.250000
vt 0.519319 0.204115
vt 0.583688 0.083688
vt 0.580294 0.080294
vt 0.968750 0.524510
vt 1.000000 0.524510
vt 0.937500 0.524510
vt 0.906250 0.524510
vt 0.875000 0.524510
vt 0.843750 0.524510
vt 0.812500 0.524510
vt 0.781250 0.524510
vt 0.799746 0.524510
vt 0.799746 0.601040
vt 0.781250 0.601040
vt 0.750000 0.524510
vt 0.750000 0.601040
vt 0.718750 0.601040
vt 0.718750 0.524510
vt 0.687500 0.524510
vt 0.700254 0.601040
vt 0.700254 0.524510
vt 0.656250 0.524510
vt 0.625000 0.524510
vt 0.593750 0.524510
vt 0.562500 0.524510
vt 0.531250 0.524510
vt 0.500000 0.524510
vt 0.468750 0.524510
vt 0.437500 0.524510
vt 0.406250 0.524510
vt 0.375000 0.524510
vt 0.343750 0.524510
vt 0.312500 0.524510
vt 0.281250 0.601040
vt 0.281250 0.524510
vt 0.299746 0.524510
vt 0.299746 0.601040
vt 0.250000 0.601040
vt 0.250000 0.524510
vt 0.218750 0.601040
vt 0.218750 0.524510
vt 0.187500 0.524510
vt 0.200254 0.601040
vt 0.200254 0.524510
vt 0.156250 0.524510
vt 0.125000 0.524510
vt 0.093750 0.524510
vt 0.062500 0.524510
vt 0.031250 0.524510
vt 0.000000 0.524510
vt 0.625000 0.315690
vt 0.375000 0.315690
vt 0.375000 0.316990
vt 0.625000 0.316990
vt 0.375000 0.433010
vt 0.375000 0.434310
vt 0.625000 0.434310
vt 0.625000 0.433010
vt 0.625000 0.816990
vt 0.625000 0.815690
vt 0.375000 0.815690
vt 0.375000 0.816990
vt 0.375000 0.934310
vt 0.625000 0.934310
vt 0.625000 0.933010
vt 0.375000 0.933010
vt 0.190690 0.500000
vt 0.188701 0.543712
vt 0.187500 0.625000
vt 0.188701 0.706288
vt 0.190690 0.750000
vt 0.191990 0.750000
vt 0.189927 0.704662
vt 0.188750 0.625000
vt 0.189927 0.545338
vt 0.191990 0.500000
vt 0.308010 0.750000
vt 0.309310 0.750000
vt 0.311299 0.706288
vt 0.312500 0.625000
vt 0.311299 0.543712
vt 0.309310 0.500000
vt 0.308010 0.500000
vt 0.310073 0.545338
vt 0.311250 0.625000
vt 0.310073 0.704662
vt 0.690690 0.500000
vt 0.688701 0.543712
vt 0.687500 0.625000
vt 0.688701 0.706288
vt 0.690690 0.750000
vt 0.691990 0.750000
vt 0.689927 0.704662
vt 0.688750 0.625000
vt 0.689927 0.545338
vt 0.691990 0.500000
vt 0.808010 0.750000
vt 0.809310 0.750000
vt 0.811299 0.706288
vt 0.812500 0.625000
vt 0.811299 0.543712
vt 0.809310 0.500000
vt 0.808010 0.500000
vt 0.810073 0.545338
vt 0.811250 0.625000
vt 0.810073 0.704662
s 0
f 1/1/1 2/2/1 5/3/1 4/4/1
f 4/4/2 5/3/2 8/5/2 7/6/2
f 7/6/3 8/5/3 11/7/3 10/8/3
f 10/8/4 11/7/4 14/9/4 13/10/4
f 13/10/5 14/9/5 17/11/5 16/12/5
f 16/12/6 17/11/6 20/13/6 19/14/6
f 131/15/7 22/15/7 19/14/7 20/13/7 23/16/7 132/17/7 130/18/7 129/19/7
f 132/17/8 23/16/8 26/20/8 134/21/8
f 133/22/9 25/22/9 22/15/9 131/15/9
f 134/21/10 26/20/10 29/23/10 136/24/10
f 135/25/11 28/25/11 25/22/11 133/22/11
f 136/24/12 29/23/12 33/26/12 31/27/12 28/25/12 135/25/12 137/28/12 138/29/12
f 31/27/13 33/26/13 35/30/13 34/31/13
f 34/31/14 35/30/14 38/32/14 37/33/14
f 37/33/15 38/32/15 41/34/15 40/35/15
f 40/35/16 41/34/16 44/36/16 43/37/16
f 43/37/17 44/36/17 48/38/17 46/39/17
f 46/39/18 48/38/18 50/40/18 49/41/18
f 49/41/19 50/40/19 53/42/19 52/43/19
f 52/43/20 53/42/20 56/44/20 55/45/20
f 55/45/21 56/44/21 59/46/21 58/47/21
f 58/47/22 59/46/22 62/48/22 61/49/22
f 61/49/23 62/48/23 65/50/23 64/51/23
f 64/51/24 65/50/24 68/52/24 67/53/24
f 70/54/25 67/53/25 68/52/25 71/55/25 142/56/25 140/57/25 139/58/25 141/54/25
f 142/56/26 71/55/26 74/59/26 144/60/26
f 73/61/27 70/54/27 141/54/27 143/61/27
f 144/60/28 74/59/28 77/62/28 146/63/28
f 76/64/29 73/61/29 143/61/29 145/64/29
f 146/63/30 77/62/30 80/65/30 79/66/30 76/64/30 145/64/30 147/67/30 148/68/30
f 79/66/31 80/65/31 83/69/31 82/70/31
f 82/70/32 83/69/32 86/71/32 85/72/32
f 85/72/33 86/71/33 89/73/33 88/74/33
f 88/74/34 89/73/34 92/75/34 91/76/34
f 41/77/35 38/78/35 35/79/35 33/80/35 29/81/35 26/82/35 23/83/35 20/84/35 17/85/35 14/86/35 11/87/35 8/88/35 5/89/35 2/90/35 96/91/35 92/92/35 89/93/35 86/94/35 83/95/35 80/96/35 77/97/35 74/98/35 71/99/35 68/100/35 65/101/35 62/102/35 59/103/35 56/104/35 53/105/35 50/106/35 48/107/35 44/108/35
f 91/76/36 92/75/36 96/109/36 94/110/36
f 94/110/37 96/109/37 2/111/37 1/112/37
f 112/113/38 113/114/38 64/115/38 67/116/38 70/117/38 73/118/38 76/119/38 79/120/38 82/121/38 85/122/38 88/123/38 91/124/38 94/125/38 1/126/38 4/127/38 7/128/38 10/129/38 13/130/38 16/131/38 19/132/38 22/133/38 25/134/38 28/135/38 31/136/38 34/137/38 37/138/38 40/139/38 43/140/38 46/141/38 49/142/38 52/143/38 55/144/38 58/145/38 123/146/38 109/147/38 110/148/38 111/149/38 128/150/38 106/151/38 107/152/38 108/153/38 122/154/38 103/155/38 105/156/38 104/157/38 126/158/38 101/159/38 102/160/38 100/161/38 121/162/38 98/163/38 99/164/38 97/165/38 125/166/38 119/167/38 120/168/38 118/169/38 124/170/38 116/171/38 117/172/38 115/173/38 127/174/38
f 114/175/38 123/146/38 58/145/38 61/176/38 64/115/38 113/114/38
f 99/177/19 6/3/19 3/2/19 97/178/19
f 98/179/20 9/5/20 6/3/20 99/177/20
f 121/180/21 12/7/21 9/5/21 98/179/21
f 100/181/22 15/9/22 12/7/22 121/180/22
f 102/182/23 18/11/23 15/9/23 100/181/23
f 101/183/24 21/13/24 18/11/24 102/182/24
f 24/16/25 21/13/25 101/183/25 126/184/25 151/184/25 149/185/25 150/186/25 152/187/25
f 126/184/39 104/188/39 153/188/39 151/184/39
f 27/20/26 24/16/26 152/187/26 154/189/26
f 156/190/28 30/23/28 27/20/28 154/189/28
f 104/188/40 105/191/40 155/191/40 153/188/40
f 105/191/30 103/192/30 32/26/30 30/23/30 156/190/30 158/193/30 157/194/30 155/191/30
f 36/30/31 32/26/31 103/192/31 122/195/31
f 39/32/32 36/30/32 122/195/32 108/196/32
f 107/197/33 42/34/33 39/32/33 108/196/33
f 106/198/34 45/36/34 42/34/34 107/197/34
f 128/199/36 47/38/36 45/36/36 106/198/36
f 51/40/37 47/38/37 128/199/37 111/200/37
f 110/201/1 54/42/1 51/40/1 111/200/1
f 109/202/2 57/44/2 54/42/2 110/201/2
f 60/46/3 57/44/3 109/202/3 123/203/3
f 63/48/4 60/46/4 123/203/4 114/204/4
f 113/205/5 66/50/5 63/48/5 114/204/5
f 112/206/6 69/52/6 66/50/6 113/205/6
f 160/207/7 72/55/7 69/52/7 112/206/7 127/208/7 159/208/7 161/209/7 162/210/7
f 164/211/8 75/59/8 72/55/8 160/207/8
f 159/208/41 127/208/41 115/212/41 163/212/41
f 166/213/10 78/62/10 75/59/10 164/211/10
f 163/212/42 115/212/42 117/214/42 165/214/42
f 165/214/12 117/214/12 116/215/12 81/65/12 78/62/12 166/213/12 168/216/12 167/217/12
f 124/218/13 84/69/13 81/65/13 116/215/13
f 118/219/14 87/71/14 84/69/14 124/218/14
f 120/220/15 90/73/15 87/71/15 118/219/15
f 119/221/16 93/75/16 90/73/16 120/220/16
f 93/92/38 95/91/38 3/90/38 6/89/38 9/88/38 12/87/38 15/86/38 18/85/38 21/84/38 24/83/38 27/82/38 30/81/38 32/80/38 36/79/38 39/78/38 42/77/38 45/108/38 47/107/38 51/106/38 54/105/38 57/104/38 60/103/38 63/102/38 66/101/38 69/100/38 72/99/38 75/98/38 78/97/38 81/96/38 84/95/38 87/94/38 90/93/38
f 125/222/17 95/109/17 93/75/17 119/221/17
f 97/223/18 3/111/18 95/109/18 125/222/18
f 148/224/43 147/225/43 167/226/43 168/227/43
f 149/228/43 129/229/43 130/230/43 150/231/43
f 158/232/44 138/233/44 137/234/44 157/235/44
f 139/236/44 140/237/44 162/238/44 161/239/44
f 147/240/35 145/241/35 143/242/35 141/243/35 139/244/35 161/245/35 159/246/35 163/247/35 165/248/35 167/249/35
f 157/250/35 137/251/35 135/252/35 133/253/35 131/254/35 129/255/35 149/256/35 151/257/35 153/258/35 155/259/35
f 130/260/38 132/261/38 134/262/38 136/263/38 138/264/38 158/265/38 156/266/38 154/267/38 152/268/38 150/269/38
f 162/270/38 140/271/38 142/272/38 144/273/38 146/274/38 148/275/38 168/276/38 166/277/38 164/278/38 160/279/38
